<svg width="30" height="30" viewBox="0 0 30 30" fill="none" xmlns="http://www.w3.org/2000/svg">
<path d="M10.9999 12.3333H1.66659C1.31296 12.3333 0.973824 12.1928 0.723775 11.9427C0.473727 11.6927 0.333252 11.3535 0.333252 10.9999V1.66659C0.333252 1.31296 0.473727 0.973824 0.723775 0.723775C0.973824 0.473727 1.31296 0.333252 1.66659 0.333252H10.9999C11.3535 0.333252 11.6927 0.473727 11.9427 0.723775C12.1928 0.973824 12.3333 1.31296 12.3333 1.66659V10.9999C12.3333 11.3535 12.1928 11.6927 11.9427 11.9427C11.6927 12.1928 11.3535 12.3333 10.9999 12.3333Z" fill="#7C3AED"/>
<path d="M10.9999 29.6665H1.66659C1.31296 29.6665 0.973824 29.526 0.723775 29.276C0.473727 29.0259 0.333252 28.6868 0.333252 28.3332V18.9998C0.333252 18.6462 0.473727 18.3071 0.723775 18.057C0.973824 17.807 1.31296 17.6665 1.66659 17.6665H10.9999C11.3535 17.6665 11.6927 17.807 11.9427 18.057C12.1928 18.3071 12.3333 18.6462 12.3333 18.9998V28.3332C12.3333 28.6868 12.1928 29.0259 11.9427 29.276C11.6927 29.526 11.3535 29.6665 10.9999 29.6665Z" fill="#7C3AED"/>
<path d="M16.3333 1.6665H29.6666V4.33317H16.3333V1.6665Z" fill="#1DB5BE"/>
<path d="M29.6666 19H16.3333V21.6667H29.6666V19Z" fill="#1DB5BE"/>
<path d="M29.6666 25.6665H16.3333V28.3332H29.6666V25.6665Z" fill="#C4B5FD"/>
<path d="M29.6666 8.33325H16.3333V10.9999H29.6666V8.33325Z" fill="#C4B5FD"/>
</svg>
